<svg xmlns="http://www.w3.org/2000/svg" width="185.5" height="112" viewBox="0 0 185.5 112">
<g transform="translate(.5 .5)">
<g>
<path d="M20 46v20m10 -20v20m-10 -10h20"></path>
</g>
<g>
<path d="M40 56h0"></path>
<path d="M145.5 56h0"></path>
<path d="M40 56a10 10 0 0 0 10 -10v-5a10 10 0 0 1 10 -10"></path>
<g class="terminal">
<path d="M60 31h10"></path>
<path d="M115.5 31h10"></path>
<rect x="70" y="20" width="45.5" height="22" rx="10" ry="10"></rect>
<text x="92.75" y="35">foo</text>
</g>
<path d="M125.5 31a10 10 0 0 1 10 10v5a10 10 0 0 0 10 10"></path>
<path d="M40 56a10 10 0 0 1 10 10v5a10 10 0 0 0 10 10"></path>
<g class="terminal">
<path d="M60 81h10"></path>
<path d="M115.5 81h10"></path>
<rect x="70" y="70" width="45.5" height="22" rx="10" ry="10"></rect>
<text x="92.75" y="85">bar</text>
</g>
<path d="M125.5 81a10 10 0 0 0 10 -10v-5a10 10 0 0 1 10 -10"></path>
<path d="M50 41a10 10 0 0 0 10 10h23.60786437626905a 10 10 0 0 1 7.071067811865475 2.9289321881345254l4.142135623730949 4.142135623730949a 10 10 0 0 0 7.071067811865475 2.9289321881345254h23.60786437626905a10 10 0 0 1 10 10"></path>
<path d="M50 71a10 10 0 0 1 10 -10h23.60786437626905a 10 10 0 0 0 7.071067811865475 -2.9289321881345254l4.142135623730949 -4.142135623730949a 10 10 0 0 1 7.071067811865475 -2.9289321881345254h23.60786437626905a10 10 0 0 0 10 -10"></path>
</g>
<path d="M 145.5 56 h 20 m -10 -10 v 20 m 10 -20 v 20"></path>
</g>
<style>
svg {
    background-color: hsl(30,20%,95%);
}
path {
    stroke-width: 3;
    stroke: black;
    fill: rgba(0,0,0,0);
}
text {
    font: bold 14px monospace;
    text-anchor: middle;
    white-space: pre;
}
text.diagram-text {
    font-size: 12px;
}
text.diagram-arrow {
    font-size: 16px;
}
text.label {
    text-anchor: start;
}
text.comment {
    font: italic 12px monospace;
}
g.non-terminal text {
    /*font-style: italic;*/
}
rect {
    stroke-width: 3;
    stroke: black;
    fill: hsl(120,100%,90%);
}
path.diagram-text {
    stroke-width: 3;
    stroke: black;
    fill: white;
    cursor: help;
}
g.diagram-text:hover path.diagram-text {
    fill: #eee;
}
</style>
</svg>