<svg xmlns="http://www.w3.org/2000/svg" width="257" height="198" viewBox="0 0 257 198">
<g transform="translate(.5 .5)">
<g>
<path d="M20 89v20m10 -20v20m-10 -10h20"></path>
</g>
<g>
<path d="M40 99h0"></path>
<path d="M217 99h0"></path>
<path d="M40 99a10 10 0 0 0 10 -10v-59a10 10 0 0 1 10 -10h58.5"></path>
<path d="M138.5 178h58.5a10 10 0 0 0 10 -10v-59a10 10 0 0 1 10 -10"></path>
<path d="M40 99h10"></path>
<g>
<path d="M50 99h0"></path>
<path d="M118.5 99h0"></path>
<path d="M50 99a10 10 0 0 0 10 -10v-10a10 10 0 0 1 10 -10"></path>
<g class="terminal">
<path d="M70 69h0"></path>
<path d="M98.5 69h0"></path>
<rect x="70" y="58" width="28.5" height="22" rx="10" ry="10"></rect>
<text x="84.25" y="73">1</text>
</g>
<path d="M98.5 69a10 10 0 0 1 10 10v10a10 10 0 0 0 10 10"></path>
<path d="M50 99a10 10 0 0 0 10 -10v-40a10 10 0 0 1 10 -10"></path>
<g class="terminal">
<path d="M70 39h0"></path>
<path d="M98.5 39h0"></path>
<rect x="70" y="28" width="28.5" height="22" rx="10" ry="10"></rect>
<text x="84.25" y="43">0</text>
</g>
<path d="M98.5 39a10 10 0 0 1 10 10v40a10 10 0 0 0 10 10"></path>
<path d="M50 99h20"></path>
<g class="terminal">
<path d="M70 99h0"></path>
<path d="M98.5 99h0"></path>
<rect x="70" y="88" width="28.5" height="22" rx="10" ry="10"></rect>
<text x="84.25" y="103">2</text>
</g>
<path d="M98.5 99h20"></path>
<path d="M50 99a10 10 0 0 1 10 10v10a10 10 0 0 0 10 10"></path>
<g class="terminal">
<path d="M70 129h0"></path>
<path d="M98.5 129h0"></path>
<rect x="70" y="118" width="28.5" height="22" rx="10" ry="10"></rect>
<text x="84.25" y="133">3</text>
</g>
<path d="M98.5 129a10 10 0 0 0 10 -10v-10a10 10 0 0 1 10 -10"></path>
<path d="M50 99a10 10 0 0 1 10 10v40a10 10 0 0 0 10 10"></path>
<g class="terminal">
<path d="M70 159h0"></path>
<path d="M98.5 159h0"></path>
<rect x="70" y="148" width="28.5" height="22" rx="10" ry="10"></rect>
<text x="84.25" y="163">4</text>
</g>
<path d="M98.5 159a10 10 0 0 0 10 -10v-40a10 10 0 0 1 10 -10"></path>
</g>
<path d="M118.5 99a10 10 0 0 1 10 10v59a10 10 0 0 0 10 10"></path>
<path d="M118.5 20a10 10 0 0 1 10 10v59a10 10 0 0 0 10 10"></path>
<g>
<path d="M138.5 99h0"></path>
<path d="M207 99h0"></path>
<path d="M138.5 99a10 10 0 0 0 10 -10v-10a10 10 0 0 1 10 -10"></path>
<g class="terminal">
<path d="M158.5 69h0"></path>
<path d="M187 69h0"></path>
<rect x="158.5" y="58" width="28.5" height="22" rx="10" ry="10"></rect>
<text x="172.75" y="73">6</text>
</g>
<path d="M187 69a10 10 0 0 1 10 10v10a10 10 0 0 0 10 10"></path>
<path d="M138.5 99a10 10 0 0 0 10 -10v-40a10 10 0 0 1 10 -10"></path>
<g class="terminal">
<path d="M158.5 39h0"></path>
<path d="M187 39h0"></path>
<rect x="158.5" y="28" width="28.5" height="22" rx="10" ry="10"></rect>
<text x="172.75" y="43">5</text>
</g>
<path d="M187 39a10 10 0 0 1 10 10v40a10 10 0 0 0 10 10"></path>
<path d="M138.5 99h20"></path>
<g class="terminal">
<path d="M158.5 99h0"></path>
<path d="M187 99h0"></path>
<rect x="158.5" y="88" width="28.5" height="22" rx="10" ry="10"></rect>
<text x="172.75" y="103">7</text>
</g>
<path d="M187 99h20"></path>
<path d="M138.5 99a10 10 0 0 1 10 10v10a10 10 0 0 0 10 10"></path>
<g class="terminal">
<path d="M158.5 129h0"></path>
<path d="M187 129h0"></path>
<rect x="158.5" y="118" width="28.5" height="22" rx="10" ry="10"></rect>
<text x="172.75" y="133">8</text>
</g>
<path d="M187 129a10 10 0 0 0 10 -10v-10a10 10 0 0 1 10 -10"></path>
<path d="M138.5 99a10 10 0 0 1 10 10v40a10 10 0 0 0 10 10"></path>
<g class="terminal">
<path d="M158.5 159h0"></path>
<path d="M187 159h0"></path>
<rect x="158.5" y="148" width="28.5" height="22" rx="10" ry="10"></rect>
<text x="172.75" y="163">9</text>
</g>
<path d="M187 159a10 10 0 0 0 10 -10v-40a10 10 0 0 1 10 -10"></path>
</g>
<path d="M207 99h10"></path>
</g>
<path d="M 217 99 h 20 m -10 -10 v 20 m 10 -20 v 20"></path>
</g>
<style>
svg {
    background-color: hsl(30,20%,95%);
}
path {
    stroke-width: 3;
    stroke: black;
    fill: rgba(0,0,0,0);
}
text {
    font: bold 14px monospace;
    text-anchor: middle;
    white-space: pre;
}
text.diagram-text {
    font-size: 12px;
}
text.diagram-arrow {
    font-size: 16px;
}
text.label {
    text-anchor: start;
}
text.comment {
    font: italic 12px monospace;
}
g.non-terminal text {
    /*font-style: italic;*/
}
rect {
    stroke-width: 3;
    stroke: black;
    fill: hsl(120,100%,90%);
}
path.diagram-text {
    stroke-width: 3;
    stroke: black;
    fill: white;
    cursor: help;
}
g.diagram-text:hover path.diagram-text {
    fill: #eee;
}
</style>
</svg>