<svg xmlns="http://www.w3.org/2000/svg" width="165.5" height="92" viewBox="0 0 165.5 92">
<g transform="translate(.5 .5)">
<g>
<path d="M20 21v20m10 -20v20m-10 -10h20"></path>
</g>
<path d="M40 31h10"></path>
<g>
<path d="M50 31h0"></path>
<path d="M115.5 31h0"></path>
<path d="M50 31h10"></path>
<g class="terminal">
<path d="M60 31h0"></path>
<path d="M105.5 31h0"></path>
<rect x="60" y="20" width="45.5" height="22" rx="10" ry="10"></rect>
<text x="82.75" y="35">foo</text>
</g>
<path d="M105.5 31h10"></path>
<path d="M60 31a10 10 0 0 0 -10 10v10a10 10 0 0 0 10 10"></path>
<g>
<path d="M60 61h7.25"></path>
<path d="M98.25 61h7.25"></path>
<text x="82.75" y="66" class="comment">bar</text>
</g>
<path d="M105.5 61a10 10 0 0 0 10 -10v-10a10 10 0 0 0 -10 -10"></path>
</g>
<path d="M115.5 31h10"></path>
<path d="M 125.5 31 h 20 m -10 -10 v 20 m 10 -20 v 20"></path>
</g>
<style>
svg {
    background-color: hsl(30,20%,95%);
}
path {
    stroke-width: 3;
    stroke: black;
    fill: rgba(0,0,0,0);
}
text {
    font: bold 14px monospace;
    text-anchor: middle;
    white-space: pre;
}
text.diagram-text {
    font-size: 12px;
}
text.diagram-arrow {
    font-size: 16px;
}
text.label {
    text-anchor: start;
}
text.comment {
    font: italic 12px monospace;
}
g.non-terminal text {
    /*font-style: italic;*/
}
rect {
    stroke-width: 3;
    stroke: black;
    fill: hsl(120,100%,90%);
}
path.diagram-text {
    stroke-width: 3;
    stroke: black;
    fill: white;
    cursor: help;
}
g.diagram-text:hover path.diagram-text {
    fill: #eee;
}
</style>
</svg>