<svg xmlns="http://www.w3.org/2000/svg" width="168.5" height="142" viewBox="0 0 168.5 142">
<g transform="translate(.5 .5)">
<g>
<path d="M20 21v20m10 -20v20m-10 -10h20"></path>
</g>
<path d="M40 31h10"></path>
<g>
<path d="M50 31h0"></path>
<path d="M50 31h10"></path>
<g class="terminal">
<path d="M60 31h10"></path>
<path d="M98.5 31h10"></path>
<rect x="70" y="20" width="28.5" height="22" rx="10" ry="10"></rect>
<text x="84.25" y="35">1</text>
</g>
<path d="M108.5 31a10 10 0 0 1 10 10v0a10 10 0 0 1 -10 10h-48.5a10 10 0 0 0 -10 10v0a10 10 0 0 0 10 10"></path>
<g class="terminal">
<path d="M60 71h10"></path>
<path d="M98.5 71h10"></path>
<rect x="70" y="60" width="28.5" height="22" rx="10" ry="10"></rect>
<text x="84.25" y="75">2</text>
</g>
<path d="M108.5 71a10 10 0 0 1 10 10v0a10 10 0 0 1 -10 10h-48.5a10 10 0 0 0 -10 10v0a10 10 0 0 0 10 10"></path>
<g class="terminal">
<path d="M60 111h10"></path>
<path d="M98.5 111h10"></path>
<rect x="70" y="100" width="28.5" height="22" rx="10" ry="10"></rect>
<text x="84.25" y="115">3</text>
</g>
<path d="M108.5 111h10"></path>
<path d="M118.5 111h0"></path>
</g>
<path d="M118.5 111h10"></path>
<path d="M 128.5 111 h 20 m -10 -10 v 20 m 10 -20 v 20"></path>
</g>
<style>
svg {
    background-color: hsl(30,20%,95%);
}
path {
    stroke-width: 3;
    stroke: black;
    fill: rgba(0,0,0,0);
}
text {
    font: bold 14px monospace;
    text-anchor: middle;
    white-space: pre;
}
text.diagram-text {
    font-size: 12px;
}
text.diagram-arrow {
    font-size: 16px;
}
text.label {
    text-anchor: start;
}
text.comment {
    font: italic 12px monospace;
}
g.non-terminal text {
    /*font-style: italic;*/
}
rect {
    stroke-width: 3;
    stroke: black;
    fill: hsl(120,100%,90%);
}
path.diagram-text {
    stroke-width: 3;
    stroke: black;
    fill: white;
    cursor: help;
}
g.diagram-text:hover path.diagram-text {
    fill: #eee;
}
</style>
</svg>