<svg xmlns="http://www.w3.org/2000/svg" width="865" height="264" viewBox="0 0 432.5 132">
<g transform="translate(.5 .5)">
<g>
<path d="M20 21v20m10 -20v20m-10 -10h20"></path>
</g>
<path d="M40 31h10"></path>
<g>
<path d="M50 31h0"></path>
<path d="M50 31h10"></path>
<g class="terminal">
<path d="M60 31h10"></path>
<path d="M158 31h10"></path>
<rect x="70" y="20" width="88" height="22" rx="10" ry="10"></rect>
<text x="114" y="35">Generate</text>
</g>
<path d="M168 31a10 10 0 0 1 10 10v0a10 10 0 0 1 -10 10h-108a10 10 0 0 0 -10 10v0a10 10 0 0 0 10 10"></path>
<g class="terminal">
<path d="M60 71h27"></path>
<path d="M141 71h27"></path>
<rect x="87" y="60" width="54" height="22" rx="10" ry="10"></rect>
<text x="114" y="75">some</text>
</g>
<path d="M168 71h10"></path>
<path d="M178 71h0"></path>
</g>
<path d="M178 71h10"></path>
<path d="M188 71h10"></path>
<g>
<path d="M198 71h0"></path>
<path d="M382.5 71h0"></path>
<path d="M198 71h10"></path>
<g class="non-terminal">
<path d="M208 71h0"></path>
<path d="M372.5 71h0"></path>
<rect x="208" y="60" width="164.5" height="22"></rect>
<text x="290.25" y="75">railroad diagrams</text>
</g>
<path d="M372.5 71h10"></path>
<path d="M208 71a10 10 0 0 0 -10 10v10a10 10 0 0 0 10 10"></path>
<g>
<path d="M208 101h49.25"></path>
<path d="M323.25 101h49.25"></path>
<text x="290.25" y="106" class="comment">and more</text>
</g>
<path d="M372.5 101a10 10 0 0 0 10 -10v-10a10 10 0 0 0 -10 -10"></path>
</g>
<path d="M382.5 71h10"></path>
<path d="M 392.5 71 h 20 m -10 -10 v 20 m 10 -20 v 20"></path>
</g>
<style>
svg {
    background-color: hsl(30,20%,95%);
}
path {
    stroke-width: 3;
    stroke: black;
    fill: rgba(0,0,0,0);
}
text {
    font: bold 14px monospace;
    text-anchor: middle;
    white-space: pre;
}
text.diagram-text {
    font-size: 12px;
}
text.diagram-arrow {
    font-size: 16px;
}
text.label {
    text-anchor: start;
}
text.comment {
    font: italic 12px monospace;
}
g.non-terminal text {
    /*font-style: italic;*/
}
rect {
    stroke-width: 3;
    stroke: black;
    fill: hsl(120,100%,90%);
}
path.diagram-text {
    stroke-width: 3;
    stroke: black;
    fill: white;
    cursor: help;
}
g.diagram-text:hover path.diagram-text {
    fill: #eee;
}
</style>
</svg>