<svg xmlns="http://www.w3.org/2000/svg" width="291" height="121" viewBox="0 0 291 121">
<g transform="translate(.5 .5)">
<g>
<path d="M20 30v20m10 -20v20m-10 -10h20"></path>
</g>
<g>
<path d="M40 40h0"></path>
<path d="M145.5 40h0"></path>
<path d="M40 40a10 10 0 0 0 10 -10v0a10 10 0 0 1 10 -10"></path>
<g>
<path d="M60 20h65.5"></path>
</g>
<path d="M125.5 20a10 10 0 0 1 10 10v0a10 10 0 0 0 10 10"></path>
<path d="M40 40h20"></path>
<g>
<path d="M60 40h0"></path>
<path d="M125.5 40h0"></path>
<path d="M60 40h10"></path>
<g class="terminal">
<path d="M70 40h0"></path>
<path d="M115.5 40h0"></path>
<rect x="70" y="29" width="45.5" height="22" rx="10" ry="10"></rect>
<text x="92.75" y="44">foo</text>
</g>
<path d="M115.5 40h10"></path>
<path d="M70 40a10 10 0 0 0 -10 10v10a10 10 0 0 0 10 10"></path>
<g>
<path d="M70 70h7.25"></path>
<path d="M108.25 70h7.25"></path>
<text x="92.75" y="75" class="comment">bar</text>
</g>
<path d="M115.5 70a10 10 0 0 0 10 -10v-10a10 10 0 0 0 -10 -10"></path>
</g>
<path d="M125.5 40h20"></path>
</g>
<g>
<path d="M145.5 40h0"></path>
<path d="M251 40h0"></path>
<path d="M145.5 40h20"></path>
<g>
<path d="M165.5 40h65.5"></path>
</g>
<path d="M231 40h20"></path>
<path d="M145.5 40a10 10 0 0 1 10 10v0a10 10 0 0 0 10 10"></path>
<g>
<path d="M165.5 60h0"></path>
<path d="M231 60h0"></path>
<path d="M165.5 60h10"></path>
<g class="terminal">
<path d="M175.5 60h0"></path>
<path d="M221 60h0"></path>
<rect x="175.5" y="49" width="45.5" height="22" rx="10" ry="10"></rect>
<text x="198.25" y="64">foo</text>
</g>
<path d="M221 60h10"></path>
<path d="M175.5 60a10 10 0 0 0 -10 10v10a10 10 0 0 0 10 10"></path>
<g>
<path d="M175.5 90h7.25"></path>
<path d="M213.75 90h7.25"></path>
<text x="198.25" y="95" class="comment">bar</text>
</g>
<path d="M221 90a10 10 0 0 0 10 -10v-10a10 10 0 0 0 -10 -10"></path>
</g>
<path d="M231 60a10 10 0 0 0 10 -10v0a10 10 0 0 1 10 -10"></path>
</g>
<path d="M 251 40 h 20 m -10 -10 v 20 m 10 -20 v 20"></path>
</g>
<style>
svg {
    background-color: hsl(30,20%,95%);
}
path {
    stroke-width: 3;
    stroke: black;
    fill: rgba(0,0,0,0);
}
text {
    font: bold 14px monospace;
    text-anchor: middle;
    white-space: pre;
}
text.diagram-text {
    font-size: 12px;
}
text.diagram-arrow {
    font-size: 16px;
}
text.label {
    text-anchor: start;
}
text.comment {
    font: italic 12px monospace;
}
g.non-terminal text {
    /*font-style: italic;*/
}
rect {
    stroke-width: 3;
    stroke: black;
    fill: hsl(120,100%,90%);
}
path.diagram-text {
    stroke-width: 3;
    stroke: black;
    fill: white;
    cursor: help;
}
g.diagram-text:hover path.diagram-text {
    fill: #eee;
}
</style>
</svg>